<?xml version="1.0" encoding="UTF-8" standalone="no"?>
<!-- Created with Inkscape (http://www.inkscape.org/) -->

<svg
   width="100.19602mm"
   height="19.889675mm"
   viewBox="0 0 100.19602 19.889676"
   version="1.1"
   id="svg3217"
   inkscape:version="1.2 (dc2aedaf03, 2022-05-15)"
   xml:space="preserve"
   sodipodi:docname="EastWest Bank (2011, horiz).svg"
   inkscape:export-filename="EastWest Bank (2011).png"
   inkscape:export-xdpi="96"
   inkscape:export-ydpi="96"
   xmlns:inkscape="http://www.inkscape.org/namespaces/inkscape"
   xmlns:sodipodi="http://sodipodi.sourceforge.net/DTD/sodipodi-0.dtd"
   xmlns="http://www.w3.org/2000/svg"
   xmlns:svg="http://www.w3.org/2000/svg"><sodipodi:namedview
     id="namedview3219"
     pagecolor="#ffffff"
     bordercolor="#eeeeee"
     borderopacity="1"
     inkscape:showpageshadow="true"
     inkscape:pageopacity="0"
     inkscape:pagecheckerboard="true"
     inkscape:deskcolor="#505050"
     inkscape:document-units="mm"
     showgrid="false"
     inkscape:zoom="1.6505311"
     inkscape:cx="109.9646"
     inkscape:cy="37.866599"
     inkscape:window-width="1920"
     inkscape:window-height="991"
     inkscape:window-x="-9"
     inkscape:window-y="-9"
     inkscape:window-maximized="1"
     inkscape:current-layer="layer1"
     showguides="false" /><defs
     id="defs3214"><linearGradient
       x1="0"
       y1="0"
       x2="1"
       y2="0"
       gradientUnits="userSpaceOnUse"
       gradientTransform="matrix(-13.682622,-16.306304,16.306304,-13.682622,49.850603,-22.012955)"
       spreadMethod="pad"
       id="linearGradient209"><stop
         style="stop-opacity:1;stop-color:#591a7c"
         offset="0"
         id="stop195" /><stop
         style="stop-opacity:1;stop-color:#591a7c"
         offset="0.0500031"
         id="stop197" /><stop
         style="stop-opacity:1;stop-color:#920884"
         offset="0.170334"
         id="stop199" /><stop
         style="stop-opacity:1;stop-color:#731885"
         offset="0.381485"
         id="stop201" /><stop
         style="stop-opacity:1;stop-color:#591a7c"
         offset="0.766663"
         id="stop203" /><stop
         style="stop-opacity:1;stop-color:#43165d"
         offset="0.949997"
         id="stop205" /><stop
         style="stop-opacity:1;stop-color:#43165d"
         offset="1"
         id="stop207" /></linearGradient><linearGradient
       x1="0"
       y1="0"
       x2="1"
       y2="0"
       gradientUnits="userSpaceOnUse"
       gradientTransform="matrix(13.675753,16.298127,-16.298127,13.675753,25.524786,-30.607263)"
       spreadMethod="pad"
       id="linearGradient243"><stop
         style="stop-opacity:1;stop-color:#e40084"
         offset="0"
         id="stop231" /><stop
         style="stop-opacity:1;stop-color:#e40084"
         offset="0.00549316"
         id="stop233" /><stop
         style="stop-opacity:1;stop-color:#c40075"
         offset="0.151855"
         id="stop235" /><stop
         style="stop-opacity:1;stop-color:#b5006c"
         offset="0.368134"
         id="stop237" /><stop
         style="stop-opacity:1;stop-color:#b5006c"
         offset="0.5"
         id="stop239" /><stop
         style="stop-opacity:1;stop-color:#76146c"
         offset="1"
         id="stop241" /></linearGradient><linearGradient
       x1="0"
       y1="0"
       x2="1"
       y2="0"
       gradientUnits="userSpaceOnUse"
       gradientTransform="matrix(-8.5037014,0,0,-8.5037014,37.806205,-32.4969)"
       spreadMethod="pad"
       id="linearGradient275"><stop
         style="stop-opacity:1;stop-color:#e40084"
         offset="0"
         id="stop265" /><stop
         style="stop-opacity:1;stop-color:#e40084"
         offset="0.00549316"
         id="stop267" /><stop
         style="stop-opacity:1;stop-color:#c40075"
         offset="0.151855"
         id="stop269" /><stop
         style="stop-opacity:1;stop-color:#b5006c"
         offset="0.5"
         id="stop271" /><stop
         style="stop-opacity:1;stop-color:#8a0f6c"
         offset="1"
         id="stop273" /></linearGradient><linearGradient
       x1="0"
       y1="0"
       x2="1"
       y2="0"
       gradientUnits="userSpaceOnUse"
       gradientTransform="matrix(-8.4962836,0,0,-8.4962889,47.851073,-20.136586)"
       spreadMethod="pad"
       id="linearGradient307"><stop
         style="stop-opacity:1;stop-color:#521c72"
         offset="0"
         id="stop297" /><stop
         style="stop-opacity:1;stop-color:#521c72"
         offset="0.149994"
         id="stop299" /><stop
         style="stop-opacity:1;stop-color:#591a7c"
         offset="0.5"
         id="stop301" /><stop
         style="stop-opacity:1;stop-color:#731885"
         offset="0.75"
         id="stop303" /><stop
         style="stop-opacity:1;stop-color:#920884"
         offset="1"
         id="stop305" /></linearGradient><clipPath
       clipPathUnits="userSpaceOnUse"
       id="clipPath445"><path
         d="m -335.492,151.869 11.268,-8.322 c 8.589,-6.345 4.273,-9.681 4.273,-9.681 l 2.235,1.672 c 2.932,2.195 4.94,4.357 5.956,6.19 0.822,1.488 1.154,2.922 1.154,4.408 0,3.835 -2.541,7.184 -7.11,10.598 l -22.326,16.709 c 0,0 -6.073,-13.726 4.55,-21.574"
         id="path443" /></clipPath><clipPath
       clipPathUnits="userSpaceOnUse"
       id="clipPath453"><path
         d="m -331.443,116.381 -34.16,40.71 40.326,33.837 34.159,-40.71 z"
         id="path451" /></clipPath><clipPath
       clipPathUnits="userSpaceOnUse"
       id="clipPath463"><path
         d="m -331.44354,116.38111 -34.15912,40.70923 40.32568,33.83731 34.15912,-40.70923 z"
         id="path461" /></clipPath><linearGradient
       x1="0"
       y1="0"
       x2="1"
       y2="0"
       gradientUnits="userSpaceOnUse"
       gradientTransform="matrix(-28.820084,34.34642,34.34642,28.820099,-314.4223,137.06348)"
       spreadMethod="pad"
       id="linearGradient479"><stop
         style="stop-opacity:1;stop-color:#591a7c"
         offset="0"
         id="stop465" /><stop
         style="stop-opacity:1;stop-color:#591a7c"
         offset="0.0500031"
         id="stop467" /><stop
         style="stop-opacity:1;stop-color:#920884"
         offset="0.170334"
         id="stop469" /><stop
         style="stop-opacity:1;stop-color:#731885"
         offset="0.381485"
         id="stop471" /><stop
         style="stop-opacity:1;stop-color:#591a7c"
         offset="0.766663"
         id="stop473" /><stop
         style="stop-opacity:1;stop-color:#43165d"
         offset="0.949997"
         id="stop475" /><stop
         style="stop-opacity:1;stop-color:#43165d"
         offset="1"
         id="stop477" /></linearGradient><clipPath
       clipPathUnits="userSpaceOnUse"
       id="clipPath497"><path
         d="m -362.367,156.735 c -2.935,-2.195 -4.941,-4.358 -5.958,-6.19 -0.824,-1.489 -1.154,-2.922 -1.154,-4.409 0,-3.835 2.543,-7.181 7.112,-10.598 l 22.325,-16.707 c 0,0 6.074,13.726 -4.552,21.573 l -11.266,8.324 c -8.589,6.342 -4.273,9.678 -4.273,9.678 l -2.234,-1.671"
         id="path495" /></clipPath><clipPath
       clipPathUnits="userSpaceOnUse"
       id="clipPath505"><path
         d="m -348.64,175.892 34.159,-40.71 -40.325,-33.837 -34.16,40.71 z"
         id="path503" /></clipPath><clipPath
       clipPathUnits="userSpaceOnUse"
       id="clipPath515"><path
         d="m -348.64001,175.8918 34.15922,-40.70936 -40.32564,-33.83724 -34.15922,40.70935 z"
         id="path513" /></clipPath><linearGradient
       x1="0"
       y1="0"
       x2="1"
       y2="0"
       gradientUnits="userSpaceOnUse"
       gradientTransform="matrix(28.819656,-34.345917,-34.345917,-28.819656,-365.61371,155.21191)"
       spreadMethod="pad"
       id="linearGradient529"><stop
         style="stop-opacity:1;stop-color:#e40084"
         offset="0"
         id="stop517" /><stop
         style="stop-opacity:1;stop-color:#e40084"
         offset="0.00549316"
         id="stop519" /><stop
         style="stop-opacity:1;stop-color:#c40075"
         offset="0.151855"
         id="stop521" /><stop
         style="stop-opacity:1;stop-color:#b5006c"
         offset="0.368134"
         id="stop523" /><stop
         style="stop-opacity:1;stop-color:#b5006c"
         offset="0.5"
         id="stop525" /><stop
         style="stop-opacity:1;stop-color:#76146c"
         offset="1"
         id="stop527" /></linearGradient><clipPath
       clipPathUnits="userSpaceOnUse"
       id="clipPath547"><path
         d="m -360.305,158.278 c -0.378,-0.388 -0.931,-1.193 -0.931,-2.342 0,-1.639 1.08,-4.057 5.366,-7.224 1.314,-0.972 2.474,-1.829 3.499,-2.586 3.884,2.867 -1.661,-1.23 7.777,5.743 2.133,1.576 3.592,3.387 4.562,5.277 -1.289,2.503 -1.719,5.143 -1.719,7.556 0,4.625 1.595,8.433 1.709,8.741 l -20.263,-15.165"
         id="path545" /></clipPath><clipPath
       clipPathUnits="userSpaceOnUse"
       id="clipPath555"><path
         d="m -340.032,144.896 h -21.204 v 28.547 h 21.204 z"
         id="path553" /></clipPath><clipPath
       clipPathUnits="userSpaceOnUse"
       id="clipPath565"><path
         d="m -340.03161,144.89605 h -21.20411 v 28.54706 h 21.20411 z"
         id="path563" /></clipPath><linearGradient
       x1="0"
       y1="0"
       x2="1"
       y2="0"
       gradientUnits="userSpaceOnUse"
       gradientTransform="matrix(-17.905548,0,0,17.905548,-339.80511,159.15332)"
       spreadMethod="pad"
       id="linearGradient577"><stop
         style="stop-opacity:1;stop-color:#e40084"
         offset="0"
         id="stop567" /><stop
         style="stop-opacity:1;stop-color:#e40084"
         offset="0.00549316"
         id="stop569" /><stop
         style="stop-opacity:1;stop-color:#c40075"
         offset="0.151855"
         id="stop571" /><stop
         style="stop-opacity:1;stop-color:#b5006c"
         offset="0.5"
         id="stop573" /><stop
         style="stop-opacity:1;stop-color:#8a0f6c"
         offset="1"
         id="stop575" /></linearGradient><clipPath
       clipPathUnits="userSpaceOnUse"
       id="clipPath595"><path
         d="m -335.492,140.404 c -2.131,-1.574 -3.589,-3.385 -4.56,-5.276 1.287,-2.504 1.718,-5.145 1.718,-7.555 0,-4.556 -1.537,-8.317 -1.713,-8.736 l 0.005,-0.006 20.283,15.178 c 0.323,0.353 0.91,1.183 0.91,2.331 0,1.635 -1.08,4.056 -5.363,7.223 -1.316,0.972 -2.476,1.828 -3.502,2.585 -3.884,-2.868 1.662,1.228 -7.778,-5.744"
         id="path593" /></clipPath><clipPath
       clipPathUnits="userSpaceOnUse"
       id="clipPath603"><path
         d="m -318.849,118.831 h -21.203 v 28.545 h 21.203 z"
         id="path601" /></clipPath><clipPath
       clipPathUnits="userSpaceOnUse"
       id="clipPath613"><path
         d="m -318.84859,118.83093 h -21.20293 v 28.54497 h 21.20293 z"
         id="path611" /></clipPath><linearGradient
       x1="0"
       y1="0"
       x2="1"
       y2="0"
       gradientUnits="userSpaceOnUse"
       gradientTransform="matrix(-17.910385,0,0,17.9104,-318.6264,133.10547)"
       spreadMethod="pad"
       id="linearGradient625"><stop
         style="stop-opacity:1;stop-color:#521c72"
         offset="0"
         id="stop615" /><stop
         style="stop-opacity:1;stop-color:#521c72"
         offset="0.149994"
         id="stop617" /><stop
         style="stop-opacity:1;stop-color:#591a7c"
         offset="0.5"
         id="stop619" /><stop
         style="stop-opacity:1;stop-color:#731885"
         offset="0.75"
         id="stop621" /><stop
         style="stop-opacity:1;stop-color:#920884"
         offset="1"
         id="stop623" /></linearGradient><clipPath
       clipPathUnits="userSpaceOnUse"
       id="clipPath763"><path
         d="m -15.79,768.809 1.964,-1.451 c 1.497,-1.104 0.745,-1.687 0.745,-1.687 l 0.39,0.292 c 0.51,0.382 0.861,0.759 1.037,1.079 0.143,0.259 0.202,0.509 0.202,0.768 0,0.669 -0.443,1.252 -1.239,1.847 l -3.892,2.912 c 0,0 -1.058,-2.392 0.793,-3.76"
         id="path761" /></clipPath><clipPath
       clipPathUnits="userSpaceOnUse"
       id="clipPath771"><path
         d="m -15.084,762.624 -5.953,7.095 7.028,5.897 5.954,-7.095 z"
         id="path769" /></clipPath><clipPath
       clipPathUnits="userSpaceOnUse"
       id="clipPath781"><path
         d="m -15.083599,762.62354 -5.953689,7.0953 7.028471,5.89761 5.953689,-7.09531 z"
         id="path779" /></clipPath><linearGradient
       x1="0"
       y1="0"
       x2="1"
       y2="0"
       gradientUnits="userSpaceOnUse"
       gradientTransform="matrix(-5.020401,5.9830627,5.9830627,5.020401,-12.121521,766.23584)"
       spreadMethod="pad"
       id="linearGradient797"><stop
         style="stop-opacity:1;stop-color:#591a7c"
         offset="0"
         id="stop783" /><stop
         style="stop-opacity:1;stop-color:#591a7c"
         offset="0.0500031"
         id="stop785" /><stop
         style="stop-opacity:1;stop-color:#920884"
         offset="0.170334"
         id="stop787" /><stop
         style="stop-opacity:1;stop-color:#731885"
         offset="0.381485"
         id="stop789" /><stop
         style="stop-opacity:1;stop-color:#591a7c"
         offset="0.766663"
         id="stop791" /><stop
         style="stop-opacity:1;stop-color:#43165d"
         offset="0.949997"
         id="stop793" /><stop
         style="stop-opacity:1;stop-color:#43165d"
         offset="1"
         id="stop795" /></linearGradient><clipPath
       clipPathUnits="userSpaceOnUse"
       id="clipPath815"><path
         d="m -20.474,769.657 c -0.511,-0.382 -0.861,-0.76 -1.038,-1.079 -0.143,-0.259 -0.201,-0.509 -0.201,-0.768 0,-0.668 0.443,-1.252 1.239,-1.847 l 3.891,-2.912 c 0,0 1.058,2.393 -0.793,3.76 l -1.964,1.451 c -1.496,1.105 -0.744,1.687 -0.744,1.687 l -0.39,-0.292"
         id="path813" /></clipPath><clipPath
       clipPathUnits="userSpaceOnUse"
       id="clipPath823"><path
         d="m -18.081,772.996 5.953,-7.095 -7.028,-5.897 -5.953,7.095 z"
         id="path821" /></clipPath><clipPath
       clipPathUnits="userSpaceOnUse"
       id="clipPath833"><path
         d="m -18.081397,772.99598 5.953307,-7.09487 -7.027838,-5.89706 -5.953307,7.09487 z"
         id="path831" /></clipPath><linearGradient
       x1="0"
       y1="0"
       x2="1"
       y2="0"
       gradientUnits="userSpaceOnUse"
       gradientTransform="matrix(5.0203247,-5.9829865,-5.9829865,-5.0203247,-21.036072,769.38867)"
       spreadMethod="pad"
       id="linearGradient847"><stop
         style="stop-opacity:1;stop-color:#e40084"
         offset="0"
         id="stop835" /><stop
         style="stop-opacity:1;stop-color:#e40084"
         offset="0.00549316"
         id="stop837" /><stop
         style="stop-opacity:1;stop-color:#c40075"
         offset="0.151855"
         id="stop839" /><stop
         style="stop-opacity:1;stop-color:#b5006c"
         offset="0.368134"
         id="stop841" /><stop
         style="stop-opacity:1;stop-color:#b5006c"
         offset="0.5"
         id="stop843" /><stop
         style="stop-opacity:1;stop-color:#76146c"
         offset="1"
         id="stop845" /></linearGradient><clipPath
       clipPathUnits="userSpaceOnUse"
       id="clipPath865"><path
         d="m -20.115,769.927 c -0.065,-0.069 -0.162,-0.209 -0.162,-0.409 0,-0.285 0.188,-0.707 0.936,-1.259 0.228,-0.169 0.431,-0.319 0.61,-0.451 0.676,0.5 -0.29,-0.214 1.355,1.001 0.372,0.274 0.626,0.59 0.795,0.92 -0.224,0.436 -0.3,0.896 -0.3,1.317 0,0.806 0.278,1.469 0.298,1.523 l -3.532,-2.642"
         id="path863" /></clipPath><clipPath
       clipPathUnits="userSpaceOnUse"
       id="clipPath873"><path
         d="m -16.581,767.594 h -3.696 v 4.975 h 3.696 z"
         id="path871" /></clipPath><clipPath
       clipPathUnits="userSpaceOnUse"
       id="clipPath883"><path
         d="m -16.580694,767.59397 h -3.696002 v 4.97502 h 3.696002 z"
         id="path881" /></clipPath><linearGradient
       x1="0"
       y1="0"
       x2="1"
       y2="0"
       gradientUnits="userSpaceOnUse"
       gradientTransform="matrix(-3.1114502,0,0,3.1114502,-16.534119,770.06396)"
       spreadMethod="pad"
       id="linearGradient895"><stop
         style="stop-opacity:1;stop-color:#e40084"
         offset="0"
         id="stop885" /><stop
         style="stop-opacity:1;stop-color:#e40084"
         offset="0.00549316"
         id="stop887" /><stop
         style="stop-opacity:1;stop-color:#c40075"
         offset="0.151855"
         id="stop889" /><stop
         style="stop-opacity:1;stop-color:#b5006c"
         offset="0.5"
         id="stop891" /><stop
         style="stop-opacity:1;stop-color:#8a0f6c"
         offset="1"
         id="stop893" /></linearGradient><linearGradient
       x1="0"
       y1="0"
       x2="1"
       y2="0"
       gradientUnits="userSpaceOnUse"
       gradientTransform="matrix(-3.121994,0,0,3.121994,-12.856873,765.54687)"
       spreadMethod="pad"
       id="linearGradient943"><stop
         style="stop-opacity:1;stop-color:#521c72"
         offset="0"
         id="stop933" /><stop
         style="stop-opacity:1;stop-color:#521c72"
         offset="0.149994"
         id="stop935" /><stop
         style="stop-opacity:1;stop-color:#591a7c"
         offset="0.5"
         id="stop937" /><stop
         style="stop-opacity:1;stop-color:#731885"
         offset="0.75"
         id="stop939" /><stop
         style="stop-opacity:1;stop-color:#920884"
         offset="1"
         id="stop941" /></linearGradient><linearGradient
       x1="0"
       y1="0"
       x2="1"
       y2="0"
       gradientUnits="userSpaceOnUse"
       gradientTransform="matrix(107.93251,-612.11572,-612.11572,-107.9325,446.64606,679.66357)"
       spreadMethod="pad"
       id="linearGradient1083"><stop
         style="stop-opacity:1;stop-color:#920884"
         offset="0"
         id="stop1073" /><stop
         style="stop-opacity:1;stop-color:#920884"
         offset="0.170334"
         id="stop1075" /><stop
         style="stop-opacity:1;stop-color:#861084"
         offset="0.369049"
         id="stop1077" /><stop
         style="stop-opacity:1;stop-color:#731885"
         offset="0.519836"
         id="stop1079" /><stop
         style="stop-opacity:1;stop-color:#591a7c"
         offset="1"
         id="stop1081" /></linearGradient></defs><g
     inkscape:label="Layer 1"
     inkscape:groupmode="layer"
     id="layer1"
     transform="translate(-0.36185733,30.841387)"><g
       id="g3452"><g
         id="g1516"
         transform="matrix(1.3894336,0,0,1.3894336,11.248875,-13.672208)"><path
           d="m 16.216135,-7.0486546 c -0.226131,-0.873125 -0.747183,-1.1415889 -1.805517,-1.1415889 -1.085144,0 -1.592438,0.2822223 -1.817863,1.1415889 -0.128412,0.4797778 -0.141464,1.0015361 -0.155223,1.5091833 l 3.947231,-0.014464 c -0.01411,-0.5069416 -0.04269,-1.0004777 -0.168628,-1.4947194 m 1.508125,2.2849416 c 0,0.098425 -0.09878,0.2113139 -0.19685,0.2113139 h -5.076119 c 0,0.7471833 0.155222,1.1708694 0.479425,1.5222361 0.394758,0.4519083 1.043869,0.606425 1.973438,0.606425 0.874889,0 1.437923,-0.1827389 2.045406,-0.352425 l 0.08361,-0.013758 c 0.07091,0 0.113948,0.042686 0.155928,0.1411111 l 0.155222,0.57785 0.01411,0.056797 c 0,0.084667 -0.0568,0.1404055 -0.155575,0.1693333 -0.54998,0.2250722 -1.480255,0.4226278 -2.453569,0.4226278 -2.762603,0 -3.651955,-1.2407195 -3.651955,-3.8773805 0,-2.4391055 0.54998,-3.8914916 3.328458,-3.8914916 1.465439,0 2.325864,0.4367389 2.805289,1.1980333 0.394405,0.6487583 0.493183,1.5232944 0.493183,2.5382361 z"
           style="fill:#591a7c;fill-opacity:1;fill-rule:nonzero;stroke:none;stroke-width:0.352778"
           id="path147" /><path
           d="m 23.292011,-5.4267235 -2.397478,0.3951111 c -0.648405,0.098425 -1.297516,0.1548694 -1.297516,1.2121444 0,1.3394972 1.086202,1.4245167 1.946275,1.4245167 0.607483,0 1.226961,-0.070908 1.748719,-0.2398889 z m 0.08431,3.8071777 c -0.422981,0.098778 -1.099608,0.1975555 -1.860903,0.1975555 -1.283053,0 -3.271308,-0.070908 -3.271308,-2.3551443 0,-1.8612556 1.071033,-1.9737917 2.396772,-2.1992167 l 2.651125,-0.4374444 v -0.6205361 c 0,-0.4363861 -0.02787,-0.7747 -0.493536,-0.95885 -0.254,-0.098072 -0.6477,-0.1407583 -1.241425,-0.1407583 -1.057275,0 -2.016478,0.2681111 -2.550936,0.3951111 l -0.09948,0.014111 c -0.0568,0 -0.127,-0.028928 -0.141112,-0.1128889 L 18.62476,-8.5286985 18.611,-8.5710315 c 0,-0.098072 0.09878,-0.1548694 0.154516,-0.1693333 0.437092,-0.1548694 1.649589,-0.4504972 2.975328,-0.4504972 1.015647,0 1.664053,0.1400528 2.087386,0.3665361 0.73272,0.4078111 0.760942,1.0996083 0.760942,1.8185694 v 3.9345305 c 0,1.0001249 -0.239889,1.2262555 -1.21285,1.4516805"
           style="fill:#591a7c;fill-opacity:1;fill-rule:nonzero;stroke:none;stroke-width:0.352778"
           id="path151" /><path
           d="m 27.986989,-1.4221314 c -1.227314,0 -2.327275,-0.3954639 -2.524125,-0.4656667 -0.04233,-0.027164 -0.113242,-0.056092 -0.113242,-0.1548694 v -0.056092 l 0.141464,-0.6205361 c 0.01376,-0.070555 0.07056,-0.1273527 0.15487,-0.1273527 l 0.07055,0.014464 c 0.141111,0.027869 1.128184,0.3802944 2.241903,0.3802944 1.099256,0 1.762478,-0.3379611 1.762478,-1.1557 0,-1.0851444 -0.817739,-1.057275 -1.847497,-1.2269611 -0.73272,-0.1128889 -2.452864,-0.2532944 -2.452864,-2.1290138 0,-1.8753666 1.649236,-2.2274389 2.904419,-2.2274389 1.198386,0 2.114197,0.2532945 2.284236,0.2959806 0.112183,0.027869 0.154517,0.098778 0.154517,0.1689805 v 0.028575 l -0.112184,0.6907389 c -0.01376,0.084667 -0.08467,0.098778 -0.141111,0.098778 h -0.02858 c -0.19685,-0.014111 -1.197327,-0.254 -2.002013,-0.254 -0.944387,0 -1.762125,0.254 -1.762125,1.0992555 0,0.9168695 0.916516,1.0015361 1.762125,1.1140722 1.241072,0.1693334 2.552699,0.3252611 2.552699,2.2136805 0,1.8330333 -1.396294,2.3128111 -3.04553,2.3128111"
           style="fill:#591a7c;fill-opacity:1;fill-rule:nonzero;stroke:none;stroke-width:0.352778"
           id="path155" /><path
           d="m 51.545594,-7.0486546 c -0.225425,-0.873125 -0.746478,-1.1415889 -1.804106,-1.1415889 -1.085849,0 -1.592791,0.2822223 -1.819274,1.1415889 -0.127353,0.4797778 -0.141112,1.0015361 -0.154517,1.5091833 l 3.947583,-0.014464 C 51.70046,-6.0608769 51.67224,-6.554413 51.545594,-7.0486547 m 1.508831,2.2849416 c 0,0.098425 -0.09807,0.2113139 -0.19685,0.2113139 h -5.076473 c 0,0.7471833 0.155928,1.1708694 0.479425,1.5222361 0.395112,0.4519083 1.043517,0.606425 1.973439,0.606425 0.875595,0 1.438275,-0.1827389 2.045053,-0.352425 l 0.08431,-0.013758 c 0.07091,0 0.113947,0.042686 0.155928,0.1411111 l 0.154516,0.57785 0.01411,0.056797 c 0,0.084667 -0.05644,0.1404055 -0.154869,0.1693333 -0.549981,0.2250722 -1.480256,0.4226278 -2.453569,0.4226278 -2.763661,0 -3.651603,-1.2407195 -3.651603,-3.8773805 0,-2.4391055 0.549628,-3.8914916 3.327047,-3.8914916 1.466144,0 2.327275,0.4367389 2.8067,1.1980333 0.394758,0.6487583 0.492831,1.5232944 0.492831,2.5382361 z"
           style="fill:#b5006c;fill-opacity:1;fill-rule:nonzero;stroke:none;stroke-width:0.352778"
           id="path159" /><path
           d="m 56.339103,-1.4221314 c -1.226608,0 -2.325864,-0.3954639 -2.523419,-0.4656667 -0.04198,-0.027164 -0.112889,-0.056092 -0.112889,-0.1548694 v -0.056092 l 0.140758,-0.6205361 c 0.01376,-0.070555 0.07056,-0.1273527 0.155222,-0.1273527 l 0.07056,0.014464 c 0.141111,0.027869 1.12783,0.3802944 2.242608,0.3802944 1.098903,0 1.762125,-0.3379611 1.762125,-1.1557 0,-1.0851444 -0.818092,-1.057275 -1.847144,-1.2269611 -0.733073,-0.1128889 -2.453217,-0.2532944 -2.453217,-2.1290138 0,-1.8753666 1.648883,-2.2274389 2.904419,-2.2274389 1.198034,0 2.115256,0.2532945 2.283531,0.2959806 0.113594,0.027869 0.155575,0.098778 0.155575,0.1689805 v 0.028575 l -0.112183,0.6907389 c -0.01482,0.084667 -0.08573,0.098778 -0.141112,0.098778 h -0.02893 c -0.197203,-0.014111 -1.197681,-0.254 -2.002014,-0.254 -0.944386,0 -1.763183,0.254 -1.763183,1.0992555 0,0.9168695 0.917222,1.0015361 1.763183,1.1140722 1.241072,0.1693334 2.551641,0.3252611 2.551641,2.2136805 0,1.8330333 -1.395236,2.3128111 -3.04553,2.3128111"
           style="fill:#b5006c;fill-opacity:1;fill-rule:nonzero;stroke:none;stroke-width:0.352778"
           id="path163" /><path
           d="m 64.277274,-1.8736164 c 0,0.085019 -0.0568,0.1411111 -0.126294,0.1693333 -0.282223,0.098778 -0.902759,0.2681111 -1.735314,0.2681111 -1.437217,0 -2.142772,-0.606425 -2.142772,-2.0171833 v -7.6274077 c 0,-0.140759 0.07091,-0.183092 0.197555,-0.21202 l 0.916517,-0.211314 h 0.04198 c 0.112889,0 0.155575,0.08537 0.155575,0.197556 v 2.298347 h 2.284236 c 0.112536,0 0.19685,0.084667 0.19685,0.2120194 v 0.6057195 c 0,0.1132416 -0.08431,0.1972027 -0.210961,0.1972027 h -2.270125 v 4.6118638 c 0,0.7327194 0.380647,0.9292167 1.113367,0.9292167 0.437797,0 0.959203,-0.1125362 1.241072,-0.1686278 l 0.04233,-0.014111 c 0.07056,0 0.140759,0.056444 0.155223,0.1411111 l 0.140758,0.5923139 z"
           style="fill:#b5006c;fill-opacity:1;fill-rule:nonzero;stroke:none;stroke-width:0.352778"
           id="path167" /><path
           d="m 46.160548,-9.0082293 h -0.959556 c -0.154163,0 -0.210255,0.084667 -0.23883,0.1979083 l -1.325033,6.2882638 H 43.27024 L 41.958612,-8.486471 c -0.02752,-0.1407583 -0.140406,-0.225425 -0.281164,-0.225425 h -1.551164 c -0.141464,0 -0.253647,0.084667 -0.282222,0.225425 l -1.325386,5.9644138 h -0.381 c 0,0 -1.040694,-4.9515888 -1.156053,-5.4698193 -0.08643,-0.3877028 -0.240594,-1.0149417 -1.672519,-1.0149417 h -0.920045 c 0.818445,0.089958 1.127831,0.5887861 1.389239,1.628775 l 1.358547,5.5467249 c 0.02787,0.1414638 0.141112,0.2261305 0.282928,0.2261305 h 1.803753 c 0.140758,0 0.254353,-0.084667 0.29598,-0.2261305 l 1.353256,-5.8935055 h 0.02857 l 1.297164,5.8935055 c 0.02822,0.1414638 0.154869,0.2261305 0.296333,0.2261305 h 1.81857 c 0.141111,0 0.254,-0.084667 0.282222,-0.2261305 l 1.748366,-6.9370221 v -0.041981 c 0,-0.1132416 -0.0702,-0.1979083 -0.183444,-0.1979083"
           style="fill:#b5006c;fill-opacity:1;fill-rule:nonzero;stroke:none;stroke-width:0.352778"
           id="path171" /><path
           d="M 35.783589,-2.4937291 C 35.769125,-2.5787485 35.69857,-2.635193 35.62872,-2.635193 l -0.04269,0.014464 c -0.281516,0.056092 -0.803627,0.1689806 -1.240719,0.1689806 -0.732719,0 -1.113719,-0.19685 -1.113719,-0.930275 V -7.992829 h 0.0018 v 0.00212 h 1.558572 c -0.13335,0 0.253294,0.00353 0.456847,0.082903 0.202847,0.078317 0.404283,0.2328333 0.530225,0.5341055 -0.261408,-1.0428111 -0.570442,-1.5426972 -1.389945,-1.6333611 l -1.157463,-0.00106 v -2.2986994 c 0,-0.111831 -0.04233,-0.197203 -0.15487,-0.197203 h -0.04233 l -0.916517,0.211667 c -0.127353,0.02822 -0.197908,0.07091 -0.197908,0.211666 v 7.6277609 c 0,1.4100528 0.705203,2.0171833 2.14383,2.0171833 0.830792,0 1.452386,-0.1693333 1.734256,-0.2684639 0.0702,-0.028222 0.125942,-0.084667 0.125942,-0.1693333 v -0.028222 z"
           style="fill:#591a7c;fill-opacity:1;fill-rule:nonzero;stroke:none;stroke-width:0.352778"
           id="path175" /></g><g
         id="g1506"
         transform="matrix(0.76753682,0,0,0.76753682,-17.843819,-0.70021613)"><path
           d="m 39.847554,-29.033448 5.345994,3.948995 c 4.065411,3.003902 2.037645,4.586111 2.027767,4.593872 v 0 l 1.060097,-0.793397 c 1.391003,-1.041048 2.343856,-2.067631 2.826103,-2.937228 v 0 c 0.390525,-0.705908 0.548217,-1.386417 0.548217,-2.09162 v 0 c 0,-1.81998 -1.2065,-3.408186 -3.37432,-5.029199 v 0 L 37.687143,-39.27 c 0,0 -2.881489,6.513336 2.160411,10.236552"
           style="fill:url(#linearGradient209);stroke:none;stroke-width:0.352778"
           id="path211" /><path
           d="m 27.093932,-31.342025 c -1.392061,1.0414 -2.343855,2.06763 -2.826103,2.937227 v 0 c -0.391936,0.706261 -0.548216,1.386417 -0.548216,2.091972 v 0 c 0,1.819628 1.2065,3.407481 3.374319,5.028848 v 0 l 10.593211,7.927622 c 0,0 2.882547,-6.512984 -2.159,-10.236553 v 0 l -5.345994,-3.948994 c -4.075642,-3.010253 -2.02812,-4.593167 -2.02812,-4.593167 v 0 z"
           style="fill:url(#linearGradient243);stroke:none;stroke-width:0.352778"
           id="path245" /><path
           d="m 28.07289,-32.074039 c -0.179211,0.184502 -0.441677,0.565855 -0.441677,1.111602 v 0 c 0,0.77717 0.511527,1.925109 2.545644,3.427589 v 0 c 0.623358,0.460728 1.174044,0.867834 1.660525,1.226961 v 0 c 1.842911,-1.360664 -0.787753,0.583142 3.690761,-2.725561 v 0 c 1.011061,-0.74683 1.703564,-1.606902 2.163939,-2.503664 v 0 c -0.611364,-1.187802 -0.815622,-2.440163 -0.815622,-3.58528 v 0 c 0,-2.195336 0.757414,-4.001558 0.810683,-4.147608 v 0 z"
           style="fill:url(#linearGradient275);stroke:none;stroke-width:0.352778"
           id="path277" /><path
           d="m 39.847554,-23.592909 c -1.012119,0.747183 -1.704269,1.606197 -2.164644,2.503664 v 0 c 0.610658,1.188155 0.815622,2.440869 0.815622,3.584928 v 0 c 0,2.161469 -0.729897,3.946172 -0.812447,4.145138 v 0 l 0.0011,0.0028 9.625189,-7.202311 c 0.152752,-0.167217 0.4318,-0.560564 0.4318,-1.105606 v 0 c 0,-0.776464 -0.512586,-1.924403 -2.545292,-3.427589 v 0 c -0.623711,-0.46108 -1.17475,-0.867127 -1.661936,-1.226608 v 0 c -1.842558,1.361017 0.789164,-0.582789 -3.68935,2.725561"
           style="fill:url(#linearGradient307);stroke:none;stroke-width:0.352778"
           id="path309" /><path
           d="m 43.457211,-26.377878 c -1.787525,-1.320447 -2.690283,-1.986492 -3.143603,-2.321983 -0.460375,-0.340078 -0.460375,-0.340078 -0.46108,-0.340078 -0.998009,-0.737658 -1.684867,-1.584678 -2.145242,-2.468386 l -0.01976,-0.01835 -0.02117,0.01905 c -0.45967,0.883356 -1.145117,1.730375 -2.143831,2.466975 -4.40443,3.25367 -1.933927,1.428398 -3.601861,2.66065 l -0.07514,0.06703 0.07444,0.06597 c 3.599744,2.658533 3.602566,2.661355 3.602566,2.661355 0.99942,0.737306 1.685573,1.584325 2.145595,2.469092 l 0.0194,0.01764 0.01976,-0.01729 c 0.460375,-0.885119 1.146528,-1.731786 2.145242,-2.469444 4.406547,-3.254728 1.931105,-1.426633 3.604683,-2.662414 l 0.07303,-0.06421 z"
           style="fill:#dedf38;fill-opacity:1;fill-rule:nonzero;stroke:none;stroke-width:0.352778"
           id="path321" /></g></g></g></svg>
