<?xml version="1.0" encoding="UTF-8" standalone="no"?>
<!-- Created with Inkscape (http://www.inkscape.org/) -->

<svg
   xmlns:dc="http://purl.org/dc/elements/1.1/"
   xmlns:cc="http://creativecommons.org/ns#"
   xmlns:rdf="http://www.w3.org/1999/02/22-rdf-syntax-ns#"
   xmlns:svg="http://www.w3.org/2000/svg"
   xmlns="http://www.w3.org/2000/svg"
   xmlns:sodipodi="http://sodipodi.sourceforge.net/DTD/sodipodi-0.dtd"
   xmlns:inkscape="http://www.inkscape.org/namespaces/inkscape"
   width="564"
   height="177.87598"
   viewBox="0 0 264.58333 83.046356"
   version="1.1"
   id="svg8"
   inkscape:version="0.92.4 (5da689c313, 2019-01-14)"
   sodipodi:docname="A.svg">
  <defs
     id="defs2">
    <clipPath
       clipPathUnits="userSpaceOnUse"
       id="clipPath1764">
      <path
         d="m 55.08,734.712 h 108 v 41.863 h -108 z"
         id="path1762"
         inkscape:connector-curvature="0" />
    </clipPath>
    <clipPath
       clipPathUnits="userSpaceOnUse"
       id="clipPath1947">
      <path
         d="m 458.625,716.925 h 101.4 v 43.2 h -101.4 z"
         id="path1945"
         inkscape:connector-curvature="0" />
    </clipPath>
    <clipPath
       clipPathUnits="userSpaceOnUse"
       id="clipPath1935">
      <path
         d="m 464.625,721.347 h 95.4 v 32.477 h -95.4 z"
         id="path1933"
         inkscape:connector-curvature="0" />
    </clipPath>
    <clipPath
       id="clipPath1764-0"
       clipPathUnits="userSpaceOnUse">
      <path
         inkscape:connector-curvature="0"
         id="path1762-6"
         d="m 55.08,734.712 h 108 v 41.863 h -108 z" />
    </clipPath>
    <clipPath
       id="clipPath1947-5"
       clipPathUnits="userSpaceOnUse">
      <path
         inkscape:connector-curvature="0"
         id="path1945-1"
         d="m 458.625,716.925 h 101.4 v 43.2 h -101.4 z" />
    </clipPath>
    <clipPath
       id="clipPath1935-0"
       clipPathUnits="userSpaceOnUse">
      <path
         inkscape:connector-curvature="0"
         id="path1933-3"
         d="m 464.625,721.347 h 95.4 v 32.477 h -95.4 z" />
    </clipPath>
  </defs>
  <sodipodi:namedview
     id="base"
     pagecolor="#ffffff"
     bordercolor="#666666"
     borderopacity="1.0"
     inkscape:pageopacity="0.82352941"
     inkscape:pageshadow="2"
     inkscape:zoom="0.49497475"
     inkscape:cx="1336.8906"
     inkscape:cy="120.86759"
     inkscape:document-units="px"
     inkscape:current-layer="layer1"
     showgrid="false"
     units="px"
     inkscape:window-width="1920"
     inkscape:window-height="1017"
     inkscape:window-x="1912"
     inkscape:window-y="-8"
     inkscape:window-maximized="1"
     inkscape:pagecheckerboard="true"
     fit-margin-top="0"
     fit-margin-left="0"
     fit-margin-right="0"
     fit-margin-bottom="0" />
  <metadata
     id="metadata5">
    <rdf:RDF>
      <cc:Work
         rdf:about="">
        <dc:format>image/svg+xml</dc:format>
        <dc:type
           rdf:resource="http://purl.org/dc/dcmitype/StillImage" />
        <dc:title></dc:title>
      </cc:Work>
    </rdf:RDF>
  </metadata>
  <g
     inkscape:label="Layer 1"
     inkscape:groupmode="layer"
     id="layer1"
     transform="translate(116.11516,-380.15518)">
    <path
       inkscape:connector-curvature="0"
       style="fill:#2d2d3a;stroke-width:1.93126369"
       d="m 44.479292,421.95938 -9.285518,-21.74604 h -7.313695 l 13.16542,29.70669 -6.359652,15.05999 h 6.991177 l 18.766087,-44.76668 h -7.186228 l -8.775664,21.74604 z m 55.266969,-22.3737 c -4.708419,0 -8.584467,2.19394 -10.74748,5.63934 -1.844356,-3.51496 -5.407543,-5.63934 -10.492561,-5.63934 -4.073033,0 -7.317556,1.6281 -9.347313,4.39175 v -3.76598 h -6.747834 v 31.32698 h 6.805768 v -17.41028 c 0,-5.77065 3.302464,-8.71583 7.757891,-8.71583 4.580953,0 7.188162,2.88335 7.188162,7.4605 V 431.552 h 6.861783 v -17.67692 c 0,-5.58131 3.31018,-8.46466 7.572483,-8.46466 4.75284,0 7.37356,3.07452 7.37356,7.77328 v 18.36633 h 6.93324 v -18.80662 c 0.004,-8.02058 -4.5095,-13.15963 -13.159633,-13.15963 z m -80.311598,-10.46547 -6.881097,3.69445 v 7.39679 H 7.149892 v 6.0178 h 5.403674 v 12.52809 c 0,9.77802 2.925867,12.78496 12.591844,12.78496 h 1.019707 v -6.32102 c -5.847871,0 -6.743972,-0.87869 -6.743972,-6.51802 v -12.47598 h 6.743972 v -6.01394 h -6.730454 z m 129.023857,26.57027 c 0,-9.33568 -7.06069,-16.10093 -16.40994,-16.10093 -9.34732,0 -16.46789,7.20751 -16.46789,16.42152 0,8.89736 6.35966,16.1686 16.40608,16.1686 8.14028,0 13.54975,-4.26233 15.96383,-11.15306 h -7.31369 c -1.20897,3.25416 -4.19664,5.32445 -8.58833,5.32445 -5.59295,0 -9.20827,-3.51292 -9.98078,-8.33722 h 26.39072 z m -25.94266,-3.32174 a 9.7683314,9.7683314 0 0 1 3.65202,-4.9827 10.002014,10.002014 0 0 1 5.95022,-1.84431 c 4.77023,0 8.26968,2.44496 9.41298,6.82701 z M -62.435496,387.43036 a 0.2549268,0.2549268 0 0 0 -0.0292,-0.36715 c -5.629631,-4.5481 -13.263858,-6.70919 -20.98699,-6.70919 -18.876184,0 -32.663474,13.9302 -32.663474,31.75384 0,17.82561 13.78729,31.75961 32.837269,31.75961 14.984659,0 27.673043,-8.19817 30.48888,-24.71626 0.110219,-0.6416 0.20292,-1.29591 0.281752,-1.96029 v -0.073 l 0.05839,-0.56788 c 0,-0.0511 0,-0.10657 0.0146,-0.1584 0.0219,-0.17372 0.0365,-0.35109 0.05109,-0.52701 v -0.21021 c 0.0146,-0.16643 0.0292,-0.33431 0.0365,-0.5 l 0.0219,-0.24891 c 0,-0.15839 0.0219,-0.31825 0.0219,-0.47883 0,-0.0964 0,-0.19343 0.0146,-0.29343 0,-0.15256 0.0146,-0.29343 0.0219,-0.45402 v -3.3932 c 0,-0.20511 -0.0146,-0.40949 -0.0219,-0.61825 v -0.19489 c 0,-0.22993 -0.0219,-0.45767 -0.0365,-0.6854 v -0.13869 c -0.0146,-0.26423 -0.0365,-0.53503 -0.0584,-0.80722 v -0.0219 c -0.0219,-0.31898 -0.05109,-0.64088 -0.08321,-0.96372 a 0.91735027,0.91735027 0 0 0 -0.30146,-0.5927 0.94245667,0.94245667 0 0 0 -0.625547,-0.24161 h -29.26056 a 0.94052543,0.94052543 0 0 0 -0.859415,0.56788 0.90383137,0.90383137 0 0 0 -0.07299,0.35183 v 10.22795 c 0.0019,0.16788 0.07299,0.32846 0.191241,0.44598 a 0.65662961,0.65662961 0 0 0 0.454014,0.18759 h 17.230716 c -1.405984,8.49182 -7.466271,13.93408 -17.562905,13.93408 -12.116779,0 -20.019475,-8.65401 -20.019475,-19.6448 0,-7.04912 3.26766,-12.95496 8.748608,-16.39641 0,0 0.343796,-0.23139 0.984963,-0.56935 1.88102,-1.02357 3.908829,-1.75751 6.015834,-2.17846 4.727734,-1.02358 11.772983,-0.75518 19.013342,3.77751 a 0.50792236,0.50792236 0 0 0 0.73,-0.25839 c 0.782189,-1.68985 2.993428,-6.13948 5.359265,-9.03445 z m 65.7750042,28.75647 -12.3214716,-1.60678 a 0.23754543,0.23754543 0 0 0 -0.1678831,0.0438 0.23175163,0.23175163 0 0 0 -0.089051,0.14891 18.428118,18.428118 0 0 1 -0.3788318,1.87525 0.22016405,0.22016405 0 0 0 0.084672,0.23723 0.23175163,0.23175163 0 0 0 0.079562,0.0365 l 12.0202018,3.12285 a 0.23368287,0.23368287 0 0 0 0.1737955,-0.0219 0.22595784,0.22595784 0 0 0 0.1081751,-0.14088 c 0.2935764,-1.13167 0.5214594,-2.2808 0.6894885,-3.43758 A 0.22595784,0.22595784 0 0 0 3.3392601,416.18508 Z M -10.254663,405.32735 c 0.117518,0.30876 0.227737,0.62409 0.3284668,0.93665 a 0.46350327,0.46350327 0 0 0 0.5678827,0.29343 l 11.4968154,-3.26 a 0.46157203,0.46157203 0 0 0 0.3379559,-0.40146 0.45384693,0.45384693 0 0 0 -0.023358,-0.18321 29.880511,29.880511 0 0 0 -0.7416052,-2.11664 0.45577824,0.45577824 0 0 0 -0.2432845,-0.2511 0.46736582,0.46736582 0 0 0 -0.3518245,-0.007 l -11.1009398,4.39168 a 0.46929706,0.46929706 0 0 0 -0.2627728,0.24525 0.45577824,0.45577824 0 0 0 -0.0073,0.35548 z m 0.8729189,3.05913 c 0.086861,0.44379 0.158394,0.87868 0.2145984,1.33839 0.014598,0.0963 0.058394,0.18759 0.1408758,0.25109 a 0.38625275,0.38625275 0 0 0 0.2781019,0.0796 l 12.0588368,-1.17037 a 0.38818399,0.38818399 0 0 0 0.2587589,-0.13722 0.37273385,0.37273385 0 0 0 0.084964,-0.27811 30.788205,30.788205 0 0 0 -0.4345252,-2.7289 0.37466517,0.37466517 0 0 0 -0.1660583,-0.24161 0.38625275,0.38625275 0 0 0 -0.2897078,-0.0511 l -11.848326,2.49905 a 0.38432144,0.38432144 0 0 0 -0.2394158,0.16204 0.37273385,0.37273385 0 0 0 -0.058394,0.28029 z m 0.3416056,3.05138 c 0.014598,0.56423 0.00584,1.12591 -0.029197,1.68598 a 0.29162078,0.29162078 0 0 0 0.2956202,0.32263 l 12.2403695,0.9154 a 0.31672726,0.31672726 0 0 0 0.227883,-0.0774 0.30320836,0.30320836 0 0 0 0.1043065,-0.2146 31.595473,31.595473 0 0 0 0.048175,-3.22138 0.28968954,0.28968954 0 0 0 -0.2008758,-0.2781 0.30320836,0.30320836 0 0 0 -0.1216787,-0.0146 l -12.2712454,0.58905 c -0.077372,0 -0.1547444,0.0365 -0.208759,0.0869 a 0.28968954,0.28968954 0 0 0 -0.084671,0.20657 z m 11.2438374,10.11787 -12.0008441,-3.72729 a 0.1602949,0.1602949 0 0 0 -0.1160583,0.0146 0.15450111,0.15450111 0 0 0 -0.077372,0.0891 18.628969,18.628969 0 0 1 -0.8111675,2.06255 0.14870732,0.14870732 0 0 0 0.0219,0.16642 0.15450111,0.15450111 0 0 0 0.0511,0.0365 l 11.38677888,5.27233 a 0.15643235,0.15643235 0 0 0 0.20437939,-0.0752 31.943101,31.943101 0 0 0 1.44069223,-3.64241 0.15063856,0.15063856 0 0 0 -0.00949,-0.11605 0.15450111,0.15450111 0 0 0 -0.090803,-0.0737 z M -11.361523,401.77575 a 0.56006647,0.56006647 0 0 0 -0.20511,0.75898 l 0.139416,0.2489 0.137226,0.2511 a 0.58517288,0.58517288 0 0 0 0.760949,0.23357 l 10.51962597,-5.09853 a 0.57165406,0.57165406 0 0 0 0.29343042,-0.33212 0.55620392,0.55620392 0 0 0 -0.0364963,-0.43868 24.546361,24.546361 0 0 0 -0.80153219,-1.44066 0.60255425,0.60255425 0 0 0 -0.7994884,-0.19708 z"
       id="path1829" />
    <path
       inkscape:connector-curvature="0"
       style="fill:#2d2d3a;stroke-width:1.93126369"
       d="m -11.127582,420.83347 a 0.08304431,0.08304431 0 0 0 -0.05839,-0.006 0.07918183,0.07918183 0 0 0 -0.0438,0.0365 19.297186,19.297186 0 0 1 -8.061088,8.03788 19.681508,19.681508 0 0 1 -11.255392,2.16306 19.584944,19.584944 0 0 1 -10.535101,-4.46708 19.129167,19.129167 0 0 1 -6.147148,-9.54043 18.572963,18.572963 0 0 1 -0.0039,-10.31488 18.796989,18.796989 0 0 1 5.51182,-8.76795 19.563701,19.563701 0 0 1 6.919703,-4.07883 c 2.570509,-0.86905 5.297441,-1.19927 8.005103,-0.96948 a 0.07725052,0.07725052 0 0 0 0.05109,-0.0146 0.07725052,0.07725052 0 0 0 0.0292,-0.0511 l 1.14905,-12.49911 a 0.07725052,0.07725052 0 0 0 -0.0219,-0.0511 0.07725052,0.07725052 0 0 0 -0.0511,-0.0292 32.530205,32.530205 0 0 0 -16.817431,3.0205 c -17.475971,8.30058 -23.667645,29.93458 -13.151887,45.99493 a 32.159402,32.159402 0 0 0 12.371668,11.03912 32.717537,32.717537 0 0 0 16.309549,3.48788 32.653806,32.653806 0 0 0 15.90006,-4.9962 32.030007,32.030007 0 0 0 11.25152343,-12.14766 0.07725052,0.07725052 0 0 0 -0.0364963,-0.10219 z"
       id="path1831" />
    <path
       inkscape:connector-curvature="0"
       style="fill:#2d2d3a;stroke-width:1.93126369"
       d="m -14.957287,383.33219 -5.241455,11.10087 a 0.23561419,0.23561419 0 0 1 -0.29781,0.11168 19.751033,19.751033 0 0 0 -1.805692,-0.69125 0.2298204,0.2298204 0 0 1 -0.137227,-0.11605 0.22209529,0.22209529 0 0 1 -0.0146,-0.17738 l 3.781384,-11.66677 a 0.22595784,0.22595784 0 0 1 0.116058,-0.13723 0.23368287,0.23368287 0 0 1 0.181752,-0.0146 c 1.124013,0.37299 2.224815,0.80723 3.302479,1.29781 a 0.22595784,0.22595784 0 0 1 0.113868,0.29343 z m 2.010436,17.13225 a 23.236964,23.236964 0 0 0 -0.625547,-0.77832 0.44998445,0.44998445 0 0 1 0.0511,-0.63358 l 8.949482,-7.81583 a 0.46929706,0.46929706 0 0 1 0.6605834,0.0438 c 0.4868609,0.5657 0.9579554,1.15103 1.4137214,1.75745 a 0.45384693,0.45384693 0 0 1 -0.1007298,0.64306 l -9.723934,6.86752 a 0.46543451,0.46543451 0 0 1 -0.619707,-0.0869 z m -2.166859,-2.37161 a 16.469816,16.469816 0 0 0 -1.029342,-0.89613 0.37659641,0.37659641 0 0 1 -0.0584,-0.527 l 7.4855418,-9.39175 a 0.3823902,0.3823902 0 0 1 0.2591239,-0.14306 0.39204654,0.39204654 0 0 1 0.2861311,0.0774 c 0.724087,0.58686 1.4252543,1.19737 2.0992684,1.8289 a 0.37852765,0.37852765 0 0 1 0.084671,0.41533 0.37852765,0.37852765 0 0 1 -0.084671,0.12336 l -8.5072192,8.50335 a 0.39011523,0.39011523 0 0 1 -0.532846,0.007 z m -2.433429,-1.92357 a 18.404943,18.404943 0 0 0 -1.45613,-0.87869 0.29548333,0.29548333 0 0 1 -0.154744,-0.17737 0.28968954,0.28968954 0 0 1 0.0292,-0.23211 l 5.789922,-10.67029 a 0.29162078,0.29162078 0 0 1 0.181752,-0.15036 0.30127712,0.30127712 0 0 1 0.237226,0.0292 c 0.959853,0.51533 1.892626,1.08146 2.792625,1.69175 a 0.29548333,0.29548333 0 0 1 0.1335766,0.19708 0.28968954,0.28968954 0 0 1 -0.058395,0.23139 l -7.052986,9.88612 a 0.31286471,0.31286471 0 0 1 -0.328467,0.12555 0.31672726,0.31672726 0 0 1 -0.116059,-0.0511 z m -2.614888,-14.77802 -3.267735,11.97386 a 0.14677601,0.14677601 0 0 1 -0.07299,0.0949 0.15450111,0.15450111 0 0 1 -0.117519,0.0146 c -0.724087,-0.1854 -1.459998,-0.32847 -2.201604,-0.43285 a 0.15450111,0.15450111 0 0 1 -0.100729,-0.0584 0.15063856,0.15063856 0 0 1 -0.0365,-0.10803 l 1.602919,-12.29641 a 0.15063856,0.15063856 0 0 1 0.05839,-0.10219 0.15450111,0.15450111 0 0 1 0.116058,-0.0292 c 1.309415,0.17372 2.609195,0.42847 3.889559,0.75898 a 0.15450111,0.15450111 0 0 1 0.121898,0.12336 0.14870732,0.14870732 0 0 1 -0.0019,0.0584 z m 151.117507,55.22448 v 26.17056 h 2.32331 v -5.67787 l 4.64662,-4.77993 7.76175,10.46364 h 2.78102 l -8.83553,-11.85415 8.46086,-8.58444 h -3.03594 l -11.77878,12.06072 v -17.79853 z m -19.40727,5.73781 h -2.28082 v 20.44049 h 2.32331 v -11.41765 c 0,-4.16956 3.19238,-7.31949 7.38129,-7.31949 4.52109,0 7.0916,2.9008 7.0916,7.27511 v 11.44466 h 2.37546 v -11.42729 c 0,-5.85562 -3.60954,-9.39948 -9.16385,-9.39948 -3.52649,0 -6.30364,1.75744 -7.72312,4.24883 l -0.004,-3.84321 z m -24.175559,10.22408 c 0,-4.70263 3.731201,-8.49175 8.41838,-8.49175 a 8.4454157,8.4454157 0 0 1 8.499489,8.49175 8.4454157,8.4454157 0 0 1 -8.499489,8.48984 c -4.687179,0 -8.41838,-3.80459 -8.41838,-8.48984 z m -2.375451,0 c 0,5.85561 4.604135,10.62393 10.658641,10.62393 3.151822,0 6.674449,-1.67445 8.375889,-4.65824 v 4.25072 h 2.36194 v -20.44049 h -2.36194 v 4.25262 c -1.70144,-2.98379 -5.224067,-4.65817 -8.375889,-4.65817 -6.098929,0 -10.658641,4.77985 -10.658641,10.62773 z m -20.320757,0 a 8.2909151,8.2909151 0 0 1 0.623795,-3.24832 c 0.42489,-1.03131 1.05254,-1.96796 1.848225,-2.75788 a 8.5303915,8.5303915 0 0 1 2.782947,-1.84241 8.6327484,8.6327484 0 0 1 3.288946,-0.64306 c 4.685244,0 8.373957,3.80656 8.373957,8.49174 0,4.68335 -3.688713,8.48985 -8.373957,8.48985 -4.853266,0 -8.543913,-3.8046 -8.543913,-8.48985 z m -2.0201,-15.95992 v 26.17057 h 2.28275 v -4.24496 c 1.699516,2.98189 5.177718,4.65627 8.377825,4.65627 a 10.803489,10.803489 0 0 0 4.117456,-0.80146 10.679888,10.679888 0 0 0 3.483997,-2.30591 10.509937,10.509937 0 0 0 2.311721,-3.45314 10.374748,10.374748 0 0 0 0.780233,-4.06335 c 0,-5.85562 -4.56358,-10.62773 -10.693407,-10.62773 -3.153757,0 -6.637754,1.67438 -8.339198,4.61569 v -9.94598 z"
       id="path1833" />
  </g>
</svg>
