<?xml version="1.0" encoding="UTF-8" standalone="no"?>
<svg
   viewBox="0 0 963.42694 805.9613"
   height="805.9613"
   width="963.42694"
   xml:space="preserve"
   id="svg2"
   version="1.1"
   sodipodi:docname="RCBC (2017).svg"
   inkscape:version="1.2 (dc2aedaf03, 2022-05-15)"
   xmlns:inkscape="http://www.inkscape.org/namespaces/inkscape"
   xmlns:sodipodi="http://sodipodi.sourceforge.net/DTD/sodipodi-0.dtd"
   xmlns="http://www.w3.org/2000/svg"
   xmlns:svg="http://www.w3.org/2000/svg"
   xmlns:rdf="http://www.w3.org/1999/02/22-rdf-syntax-ns#"
   xmlns:cc="http://creativecommons.org/ns#"
   xmlns:dc="http://purl.org/dc/elements/1.1/"><sodipodi:namedview
     id="namedview20"
     pagecolor="#ffffff"
     bordercolor="#eeeeee"
     borderopacity="1"
     inkscape:showpageshadow="0"
     inkscape:pageopacity="0"
     inkscape:pagecheckerboard="0"
     inkscape:deskcolor="#505050"
     showgrid="false"
     inkscape:zoom="0.52249848"
     inkscape:cx="91.866297"
     inkscape:cy="479.42724"
     inkscape:window-width="1920"
     inkscape:window-height="991"
     inkscape:window-x="-9"
     inkscape:window-y="-9"
     inkscape:window-maximized="1"
     inkscape:current-layer="svg2"
     showguides="false" /><metadata
     id="metadata8"><rdf:RDF><cc:Work
         rdf:about=""><dc:format>image/svg+xml</dc:format><dc:type
           rdf:resource="http://purl.org/dc/dcmitype/StillImage" /></cc:Work></rdf:RDF></metadata><defs
     id="defs6" /><g
     id="g5578"><path
       id="path22"
       style="fill:#4892cf;fill-opacity:1;fill-rule:nonzero;stroke:none;stroke-width:1.33333"
       d="M 0.0148582,201.48533 C 115.19752,134.33067 230.39085,67.198665 345.55085,0 c 115.10666,69.585331 230.46399,138.75733 345.55866,208.352 -0.11867,45.848 -0.0333,91.70666 -0.0427,137.55333 -10.09067,0.032 -20.168,0.044 -30.25866,0.0107 0.0653,-39.15333 -0.0427,-78.29599 0.0653,-117.44933 C 555.82418,164.54533 450.60018,100.916 345.57352,36.973332 240.42552,97.455997 135.22419,157.84133 30.130857,218.40933 c 0.217334,122.01733 -0.108,244.03466 0.162667,366.04132 105.191996,61.34934 210.154666,123.08 315.279996,184.53867 105.01733,-61.664 210.17466,-123.09067 315.22399,-184.70133 0.0653,-6.716 0.0107,-13.42 0.0333,-20.136 10.068,-0.0107 20.14533,-0.0107 30.22533,0 0.0427,12.25866 -0.0773,24.51866 0.0533,36.77733 -115.08533,68.532 -230.452,136.56666 -345.56799,205.03199 C 230.38019,737.66932 115.23086,669.36398 0.02552487,601.15732 -0.0171418,467.93332 0.00419153,334.70933 0.0148582,201.48533" /><path
       id="path26"
       style="fill:#4892cf;fill-opacity:1;fill-rule:nonzero;stroke:none;stroke-width:1.33333"
       d="m 453.34551,361.14813 c 19.09467,-7.56133 40.38,-8.35333 60.46,-4.828 19.78933,3.396 37.896,13.844 51.988,27.95867 -7.36534,8.15733 -14.41734,16.588 -21.66534,24.84266 -11.72666,-11.12 -26.02533,-20.428 -42.26666,-22.93466 -16.88,-3.01467 -35.11733,0.956 -48.71067,11.56533 -12.108,9.232 -20.41733,22.968 -23.81333,37.732 -4.156,17.92266 -1.97467,37.472 6.94267,53.65866 7.04133,12.812 18.476,23.368 32.232,28.54267 13.83333,5.26267 29.42266,5.15467 43.472,0.804 12.88799,-4.08 23.77999,-12.59467 33.48933,-21.752 7.23733,7.324 14.65733,14.484 21.59066,22.1 -13.40933,14.04933 -29.9,25.86267 -49.02666,30.45067 -17.65067,4.24266 -36.46267,4.59066 -54.12533,0.15333 -22.66267,-5.696 -42.94,-20.22267 -55.644,-39.83733 -22.00133,-33.30667 -21.69733,-79.70534 0.608,-112.78533 10.62133,-16.132 26.44933,-28.74934 44.46933,-35.67067" /><path
       id="path30"
       style="fill:#4892cf;fill-opacity:1;fill-rule:nonzero;stroke:none;stroke-width:1.33333"
       d="m 837.03764,367.09346 c 14.78667,-8.408 31.81867,-12.72533 48.82,-12.71467 13.97333,-0.26 28.09733,1.65867 41.19333,6.704 13.148,5.056 24.97333,13.25734 34.91067,23.196 -7.24667,8.23334 -14.396,16.55467 -21.57734,24.85334 -8.788,-8.256 -18.79066,-15.492 -30.15066,-19.744 -16.12,-5.956 -34.68267,-5.66267 -50.24,1.844 -13.236,6.26 -23.80267,17.564 -29.82267,30.84266 -8.23466,17.98933 -8.82133,39.26267 -1.89866,57.78133 5.608,15.352 17.01066,28.75067 31.86266,35.82267 13.192,6.48933 28.64134,7.45333 42.864,4.24267 15.12267,-3.2 27.664,-12.9 38.80533,-23.108 7.18267,7.28 14.37467,14.55866 21.62267,21.784 -12.61733,13.45333 -28.09867,24.75733 -46.02133,29.84533 -14.38533,4.20933 -29.61733,4.86 -44.46933,3.428 -28.67334,-3.25333 -55.47067,-20.21067 -70.236,-45.08667 -19.028,-31.27733 -19.32134,-72.884 -0.95467,-104.52933 8.32133,-14.60266 20.656,-26.89466 35.292,-35.16133" /><path
       id="path34"
       style="fill:#4892cf;fill-opacity:1;fill-rule:nonzero;stroke:none;stroke-width:1.33333"
       d="m 242.96472,388.28093 c 0.0107,21.42667 0.032,42.864 -0.0227,64.29067 16.88134,-0.0107 33.76267,0.032 50.64267,-0.0213 9.548,-0.032 19.43066,-2.41866 27.02533,-8.41866 13.82133,-10.632 14.84133,-33.60934 2.69067,-45.848 -7.85467,-7.50667 -19.148,-9.808 -29.68267,-9.97067 -16.88133,-0.064 -33.772,0 -50.65333,-0.032 m -33.62,-30.62667 c 29.14,0.044 58.28,-0.032 87.42,0.044 18.39866,0.0547 37.75333,4.91467 51.596,17.61867 12.16133,10.99067 17.92266,27.77333 17.46666,43.93733 0.0867,15.03734 -5.20666,30.388 -16.03333,41.06267 -8.148,8.09466 -18.68267,13.45333 -29.69333,16.436 17.28133,24.108 34.44533,48.3 51.66133,72.46 -12.736,0.13066 -25.484,0.0333 -38.22,0.0653 -1.49733,0.35867 -2.13733,-1.24667 -2.92933,-2.116 -15.14534,-21.57733 -30.344,-43.124 -45.544,-64.65867 -14.03867,0.076 -28.076,0.0227 -42.11467,0.032 0.032,22.252 0.032,44.51334 -0.012,66.76534 -11.196,-0.0453 -22.40133,-0.0333 -33.60933,0 -0.0107,-63.88 -0.0213,-127.768 0.012,-191.64667" /><path
       id="path38"
       style="fill:#4892cf;fill-opacity:1;fill-rule:nonzero;stroke:none;stroke-width:1.33333"
       d="m 629.01031,466.79399 c -0.108,17.55333 -0.0107,35.11867 -0.0533,52.68267 19.46266,0.012 38.92533,0.032 58.388,-0.0107 9.12399,-0.35867 18.84533,-2.06133 26.10266,-7.996 11.41333,-9.13467 11.07733,-29.56267 -1.432,-37.624 -10.74133,-7.052 -24.19333,-7.02933 -36.58266,-7.052 z m -0.0427,-79.36933 c -0.0333,16.97733 0.032,33.96666 -0.0227,50.94666 15.51466,-0.012 31.03866,0 46.55333,0 5.728,0.064 11.44533,-0.78133 16.94533,-2.36666 6.932,-2.16934 13.64933,-6.61734 16.50133,-13.54934 3.656,-8.712 2.61467,-20.07066 -4.58933,-26.69866 -6.83467,-6.43467 -16.64266,-8.00667 -25.65733,-8.344 -16.57733,-0.009 -33.15467,-0.032 -49.73067,0.012 m -33.24133,-29.75867 c 29.812,0.032 59.62533,-0.0653 89.43733,0.044 16.784,0.34667 34.67333,4.80534 46.84667,17.032 8.64533,8.408 12.91066,20.64534 12.57333,32.58933 0.10933,11.12 -3.63467,22.46934 -11.424,30.56134 -4.39467,4.904 -10.00267,8.42933 -15.60133,11.804 11.14266,3.992 22.44666,9.56933 29.57466,19.376 8.09334,10.79466 9.44934,25.20133 7.192,38.144 -2.32133,12.87866 -10.63066,24.30266 -21.86,30.90933 -14.472,8.636 -31.67866,11.28266 -48.29866,11.14133 -29.476,0.044 -58.94267,-0.044 -88.40667,0.0547 -0.0653,-63.88933 0.009,-127.768 -0.0333,-191.656" /></g></svg>
