<?xml version="1.0" encoding="UTF-8"?>
<svg id="svg6" width="299.706" height="69.975" version="1.1" viewBox="0 0 299.706 69.975" xmlns="http://www.w3.org/2000/svg" xmlns:xlink="http://www.w3.org/1999/xlink">
 <defs id="defs1">
  <path id="a" d="m0 0h123.265v69.975h-123.265z"/>
  <path id="c" d="m0 0h162.086v61.839h-162.086z"/>
  <path id="e" d="m0 0h34.047v33.264h-34.047z"/>
  <mask id="b" fill="#ffffff">
   <use id="use1" xlink:href="#a"/>
  </mask>
  <mask id="d" fill="#ffffff">
   <use id="use2" xlink:href="#c"/>
  </mask>
  <mask id="f" fill="#ffffff">
   <use id="use4" xlink:href="#e"/>
  </mask>
 </defs>
 <g id="g7">
  <path id="path1" d="m35.583 61.673c6.4 11.059 16.872 11.059 23.273 0l3.58-6.186-32.04-55.487h-30.415l35.6 61.673m67.476-23.703c-2.338 4.031-7.843 4.027-10.176-8e-3l-21.949-37.962h-30.402l35.635 61.693c6.4 11.06 16.85 11.06 23.25 0l23.851-41.318-11.738-20.375h-30.39l21.92 37.97" fill="#0A0B09" mask="url(#b)" style="fill-rule:evenodd;fill:#ffdd00"/>
  <g id="g6">
   <path id="path2" d="m143.869 32.622h6.235l0.053-0.195c3.846-14.27 5.424-20.364 6.065-24.14 0.624 3.765 2.122 9.946 5.8 24.137l0.051 0.198h6.37l8.869-32.622h-5.802l-0.051 0.197c-3.855 14.81-5.325 20.809-5.99 24.628-0.774-4.106-2.445-10.88-6.053-24.629l-0.052-0.196h-6.061l-0.05 0.198c-3.753 14.665-5.325 20.944-5.997 25.022-0.735-3.973-2.388-10.56-6.135-25.023l-0.052-0.197h-6.023l8.77 32.427 0.053 0.195m42.94-19.754c3.433 0 6.041 2.195 6.307 5.259h-12.737c0.39-3.065 3.047-5.26 6.43-5.26zm0.356 20.206c4.712 0 9.173-2.57 10.956-6.395l-4.302-2.188-0.092-0.01-0.08 0.169c-0.522 1.083-2.432 3.602-6.438 3.602-3.638 0-6.406-2.315-6.83-5.665h18.528l0.01-0.257c0.114-4.572-1.128-8.323-3.59-10.848-2.136-2.189-5.08-3.346-8.514-3.346-3.39 0-6.48 1.277-8.699 3.596-2.196 2.296-3.406 5.463-3.406 8.918 0 7.315 5.124 12.424 12.46 12.424zm23.461 0c6.066 0 9.835-2.82 9.835-7.36 0-5.383-4.894-6.654-8.826-7.674-2.717-0.705-5.063-1.315-5.063-3.04 0-1.389 1.466-2.359 3.565-2.359 2.295 0 3.884 1.212 4.145 3.162l0.162 0.987 0.108-0.018 4.823-0.89c0-4.523-4.002-7.7-9.194-7.7-5.344 0-9.077 2.952-9.077 7.18 0 5.107 4.748 6.378 8.564 7.4 2.761 0.74 5.146 1.378 5.146 3.177 0 1.567-1.536 2.54-4.01 2.54-2.972 0-4.97-1.383-5.213-3.608l-0.044-0.365-5.11 0.97c0 4.951 5.545 7.598 10.19 7.598m14.15-4.892c0 2.7 1.71 4.891 4.54 4.891 3.51 0 4.542-0.451 4.542-0.451v-4.548s-1.053 0.173-2.334 0.173c-0.828 0-1.41-0.499-1.41-1.255v-13.763h3.706l-0.052-4.595h-3.654v-6.826l-5.338 1.337v5.489h-2.786l-0.015 4.595h2.801v14.953m41.841-16.514v-3.034h-4.699v23.988h5.648l-0.046-14.67c0.073-1.476 0.568-2.607 1.472-3.36 1.186-0.99 3.033-1.328 5.486-1.003l0.295 0.039 0.05-5.006-0.23-0.031c-3.384-0.462-6.446 0.572-7.976 3.077" fill="#000000" style="fill-rule:evenodd"/>
   <path id="path3" transform="translate(137.62,8.136)" d="m152.52 0c-3.395 0-6.576 1.353-8.151 3.924v-3.426h-4.888v23.988h5.69v-12.876c0-4.137 2.165-6.607 5.79-6.607 2.48 0 5.436 1.083 5.436 6.246v13.237h5.69v-14.006c0-7.727-4.941-10.48-9.567-10.48m-132.043 47.896c0 5.544-2.626 8.596-7.393 8.596-4.739 0-7.348-3.052-7.348-8.596v-19.114h-5.736v18.978c0 8.827 4.891 14.096 13.084 14.096s13.084-5.27 13.084-14.096v-18.978h-5.691v19.114" fill="#0a0b09" mask="url(#d)" style="fill-rule:evenodd"/>
   <path id="path4" d="m180.22 45.055c-3.395 0-6.576 1.353-8.151 3.923v-3.426h-4.889v23.989h5.692v-12.876c0-4.137 2.164-6.607 5.79-6.607 2.479 0 5.434 1.083 5.434 6.245v13.238h5.69v-14.006c0-7.727-4.941-10.48-9.566-10.48m13.093 24.486h5.647v-23.989h-5.647z" fill="#000000" style="fill-rule:evenodd"/>
   <path id="path5" transform="translate(192.868,36.711)" d="m3.29 0c-1.844 0-3.29 1.422-3.29 3.237 0 1.76 1.476 3.193 3.29 3.193 1.79 0 3.247-1.432 3.247-3.193a3.245 3.245 0 0 0-3.247-3.237m18.074 28.098c-4.062 0-7.126-3.132-7.126-7.285 0-4.154 3.064-7.286 7.126-7.286 4.113 0 7.215 3.132 7.215 7.286 0 4.153-3.102 7.285-7.215 7.285zm0-19.754c-3.513 0-6.724 1.261-9.043 3.55-2.32 2.29-3.596 5.457-3.596 8.919 0 7.225 5.316 12.469 12.639 12.469 7.35 0 12.683-5.244 12.683-12.47 0-3.463-1.278-6.63-3.6-8.917-2.326-2.29-5.551-3.551-9.083-3.551z" fill="#0a0b09" mask="url(#f)" style="fill-rule:evenodd"/>
   <path id="path6" d="m242.59 45.055c-3.395 0-6.576 1.353-8.15 3.923v-3.426h-4.889v23.989h5.69v-12.876c0-4.137 2.165-6.607 5.791-6.607 2.48 0 5.435 1.083 5.435 6.245v13.238h5.69v-14.006c0-7.727-4.942-10.48-9.567-10.48m-1.64-26.929c0.39-3.064 3.047-5.258 6.43-5.258 3.433 0 6.04 2.195 6.306 5.259h-12.736zm6.43-9.99c-3.391 0-6.48 1.277-8.7 3.596-2.196 2.296-3.406 5.463-3.406 8.918 0 7.315 5.125 12.424 12.461 12.424 4.713 0 9.173-2.57 10.957-6.395l-4.303-2.188-0.091-0.01-0.081 0.169c-0.522 1.083-2.431 3.602-6.437 3.602-3.639 0-6.407-2.315-6.83-5.665h18.527l0.01-0.257c0.113-4.572-1.129-8.323-3.591-10.848-2.138-2.189-5.083-3.346-8.517-3.346z" fill="#000000" style="fill-rule:evenodd"/>
  </g>
 </g>
</svg>
